<svg width="110" height="21" viewBox="0 0 110 21" fill="none" xmlns="http://www.w3.org/2000/svg">
    <defs>
        <linearGradient id="paint0_linear_4446_2542" x1="-0.0417993" y1="-0.0420351" x2="20.0002"
            y2="20.0006" gradientUnits="userSpaceOnUse">
            <stop stop-color="white" />
            <stop offset="1" stop-color="#C9FFF2" />
        </linearGradient>
    </defs>
    <path fill-rule="evenodd" clip-rule="evenodd"
        d="M10.0005 1.71593C10.0005 1.71588 10.0004 1.71583 10.0004 1.71578C7.71269 -0.571925 4.00359 -0.571926 1.71589 1.71578C-0.571724 4.00339 -0.571809 7.7123 1.71564 10C-0.571807 12.2877 -0.571723 15.9967 1.7159 18.2843C4.00359 20.572 7.71269 20.572 10.0004 18.2843L10.0005 18.2841L10.0007 18.2843C12.2884 20.572 15.9975 20.572 18.2852 18.2843C20.5728 15.9967 20.5729 12.2877 18.2855 10C20.5729 7.7123 20.5728 4.00339 18.2852 1.71578C15.9975 -0.571926 12.2884 -0.571926 10.0007 1.71578C10.0006 1.71583 10.0006 1.71588 10.0005 1.71593Z"
        fill="url(#paint0_linear_4446_2542)" />
    <path
        d="M38.521 3.22C37.7743 3.22 37.1743 3.46667 36.721 3.96C36.2676 4.45333 36.041 5.10667 36.041 5.92V6.46H38.081C38.361 6.46 38.5876 6.54 38.761 6.7C38.9343 6.86 39.021 7.07333 39.021 7.34C39.021 7.58 38.9343 7.78 38.761 7.94C38.5876 8.1 38.361 8.18 38.081 8.18H36.041V15.98C36.041 16.2867 35.9476 16.5333 35.761 16.72C35.5743 16.9067 35.3143 17 34.981 17C34.7143 17 34.481 16.9067 34.281 16.72C34.0943 16.5333 34.001 16.2867 34.001 15.98V8.18H33.141C32.861 8.18 32.6343 8.1 32.461 7.94C32.2876 7.78 32.201 7.58 32.201 7.34C32.201 7.07333 32.2876 6.86 32.461 6.7C32.6343 6.54 32.861 6.46 33.141 6.46H34.001V6.12C34.001 5.17333 34.1876 4.34667 34.561 3.64C34.9476 2.92 35.481 2.36667 36.161 1.98C36.8543 1.58 37.641 1.38 38.521 1.38C38.8143 1.38 39.0543 1.46667 39.241 1.64C39.441 1.81333 39.541 2.03333 39.541 2.3C39.541 2.56667 39.441 2.78667 39.241 2.96C39.0543 3.13333 38.8143 3.22 38.521 3.22ZM45.7141 17.08C44.6474 17.08 43.6941 16.8467 42.8541 16.38C42.0141 15.9 41.3608 15.24 40.8941 14.4C40.4274 13.56 40.1941 12.6067 40.1941 11.54C40.1941 10.46 40.4274 9.5 40.8941 8.66C41.3608 7.82 42.0141 7.16667 42.8541 6.7C43.6941 6.22 44.6474 5.98 45.7141 5.98C46.7674 5.98 47.7074 6.22 48.5341 6.7C49.3741 7.16667 50.0274 7.82 50.4941 8.66C50.9741 9.5 51.2141 10.46 51.2141 11.54C51.2141 12.6067 50.9808 13.56 50.5141 14.4C50.0474 15.24 49.3941 15.9 48.5541 16.38C47.7274 16.8467 46.7808 17.08 45.7141 17.08ZM45.7141 15.28C46.3941 15.28 47.0008 15.12 47.5341 14.8C48.0808 14.48 48.5008 14.04 48.7941 13.48C49.1008 12.9067 49.2541 12.26 49.2541 11.54C49.2541 10.82 49.1008 10.1733 48.7941 9.6C48.5008 9.02667 48.0808 8.58 47.5341 8.26C47.0008 7.94 46.3941 7.78 45.7141 7.78C45.0341 7.78 44.4208 7.94 43.8741 8.26C43.3408 8.58 42.9208 9.02667 42.6141 9.6C42.3074 10.1733 42.1541 10.82 42.1541 11.54C42.1541 12.26 42.3074 12.9067 42.6141 13.48C42.9208 14.04 43.3408 14.48 43.8741 14.8C44.4208 15.12 45.0341 15.28 45.7141 15.28ZM59.6102 5.94C60.3169 5.94 60.8702 6.04667 61.2702 6.26C61.6702 6.47333 61.8702 6.74 61.8702 7.06C61.8702 7.15333 61.8635 7.22 61.8502 7.26C61.7302 7.68667 61.4635 7.9 61.0502 7.9C60.9835 7.9 60.8835 7.88667 60.7502 7.86C60.2169 7.76667 59.7835 7.72 59.4502 7.72C58.4902 7.72 57.7169 7.94 57.1302 8.38C56.5435 8.82 56.2502 9.41333 56.2502 10.16V16C56.2502 16.32 56.1635 16.5667 55.9902 16.74C55.8302 16.9133 55.5835 17 55.2502 17C54.9302 17 54.6835 16.92 54.5102 16.76C54.3369 16.5867 54.2502 16.3333 54.2502 16V7.06C54.2502 6.74 54.3369 6.49333 54.5102 6.32C54.6835 6.14667 54.9302 6.06 55.2502 6.06C55.9169 6.06 56.2502 6.39333 56.2502 7.06V7.44C56.6502 6.97333 57.1435 6.60667 57.7302 6.34C58.3169 6.07333 58.9435 5.94 59.6102 5.94ZM68.6368 15C68.8768 15 69.0768 15.0933 69.2368 15.28C69.4101 15.4667 69.4968 15.7067 69.4968 16C69.4968 16.2933 69.3834 16.5333 69.1568 16.72C68.9434 16.9067 68.6634 17 68.3168 17H67.9568C67.3034 17 66.7034 16.8333 66.1568 16.5C65.6234 16.1533 65.2034 15.6867 64.8968 15.1C64.5901 14.5133 64.4368 13.8533 64.4368 13.12V8.18H63.5168C63.2368 8.18 63.0101 8.1 62.8368 7.94C62.6634 7.78 62.5768 7.58 62.5768 7.34C62.5768 7.07333 62.6634 6.86 62.8368 6.7C63.0101 6.54 63.2368 6.46 63.5168 6.46H64.4368V3.58C64.4368 3.28667 64.5301 3.04667 64.7168 2.86C64.9034 2.67333 65.1434 2.58 65.4368 2.58C65.7301 2.58 65.9701 2.67333 66.1568 2.86C66.3434 3.04667 66.4368 3.28667 66.4368 3.58V6.46H68.1368C68.4168 6.46 68.6434 6.54 68.8168 6.7C68.9901 6.86 69.0768 7.07333 69.0768 7.34C69.0768 7.58 68.9901 7.78 68.8168 7.94C68.6434 8.1 68.4168 8.18 68.1368 8.18H66.4368V13.12C66.4368 13.6533 66.5834 14.1 66.8768 14.46C67.1701 14.82 67.5301 15 67.9568 15H68.6368ZM81.0241 6.04C81.3308 6.04 81.5774 6.13333 81.7641 6.32C81.9508 6.50667 82.0441 6.75333 82.0441 7.06V15.98C82.0441 16.2733 81.9508 16.52 81.7641 16.72C81.5774 16.9067 81.3308 17 81.0241 17C80.7308 17 80.4841 16.9067 80.2841 16.72C80.0974 16.52 80.0041 16.2733 80.0041 15.98V15.76C79.5774 16.1867 79.0708 16.52 78.4841 16.76C77.8974 16.9867 77.2708 17.1 76.6041 17.1C75.6841 17.1 74.8574 16.9 74.1241 16.5C73.3908 16.1 72.8174 15.52 72.4041 14.76C71.9908 13.9867 71.7841 13.06 71.7841 11.98V7.06C71.7841 6.76667 71.8774 6.52667 72.0641 6.34C72.2641 6.14 72.5108 6.04 72.8041 6.04C73.0974 6.04 73.3374 6.14 73.5241 6.34C73.7241 6.52667 73.8241 6.76667 73.8241 7.06V11.98C73.8241 13.06 74.1108 13.88 74.6841 14.44C75.2708 14.9867 76.0441 15.26 77.0041 15.26C77.5641 15.26 78.0708 15.1467 78.5241 14.92C78.9908 14.6933 79.3508 14.3867 79.6041 14C79.8708 13.6133 80.0041 13.18 80.0041 12.7V7.06C80.0041 6.75333 80.0974 6.50667 80.2841 6.32C80.4841 6.13333 80.7308 6.04 81.0241 6.04ZM91.0769 5.96C91.9969 5.96 92.8236 6.16 93.5569 6.56C94.2902 6.96 94.8636 7.54667 95.2769 8.32C95.6902 9.08 95.8969 10 95.8969 11.08V16C95.8969 16.2933 95.7969 16.54 95.5969 16.74C95.4102 16.9267 95.1702 17.02 94.8769 17.02C94.5836 17.02 94.3369 16.9267 94.1369 16.74C93.9502 16.54 93.8569 16.2933 93.8569 16V11.08C93.8569 10 93.5636 9.18667 92.9769 8.64C92.4036 8.08 91.6369 7.8 90.6769 7.8C90.1169 7.8 89.6036 7.91333 89.1369 8.14C88.6836 8.36667 88.3236 8.67333 88.0569 9.06C87.8036 9.44667 87.6769 9.88 87.6769 10.36V16C87.6769 16.2933 87.5836 16.54 87.3969 16.74C87.2102 16.9267 86.9636 17.02 86.6569 17.02C86.3636 17.02 86.1169 16.9267 85.9169 16.74C85.7302 16.54 85.6369 16.2933 85.6369 16V7.08C85.6369 6.77333 85.7302 6.52667 85.9169 6.34C86.1169 6.15333 86.3636 6.06 86.6569 6.06C86.9636 6.06 87.2102 6.15333 87.3969 6.34C87.5836 6.52667 87.6769 6.77333 87.6769 7.08V7.3C88.1036 6.87333 88.6102 6.54667 89.1969 6.32C89.7836 6.08 90.4102 5.96 91.0769 5.96ZM109.09 11.36C109.09 11.6133 109.003 11.8267 108.83 12C108.656 12.16 108.436 12.24 108.17 12.24H100.57C100.716 13.1733 101.136 13.9267 101.83 14.5C102.536 15.0733 103.396 15.36 104.41 15.36C104.81 15.36 105.223 15.2867 105.65 15.14C106.09 14.9933 106.45 14.8133 106.73 14.6C106.916 14.4533 107.136 14.38 107.39 14.38C107.643 14.38 107.843 14.4467 107.99 14.58C108.23 14.78 108.35 15.0067 108.35 15.26C108.35 15.5 108.243 15.7 108.03 15.86C107.576 16.22 107.01 16.5133 106.33 16.74C105.663 16.9667 105.023 17.08 104.41 17.08C103.316 17.08 102.336 16.8467 101.47 16.38C100.603 15.9 99.9231 15.24 99.4297 14.4C98.9497 13.56 98.7097 12.6067 98.7097 11.54C98.7097 10.4733 98.9364 9.52 99.3897 8.68C99.8564 7.82667 100.496 7.16667 101.31 6.7C102.136 6.22 103.07 5.98 104.11 5.98C105.136 5.98 106.023 6.20667 106.77 6.66C107.516 7.11333 108.09 7.74667 108.49 8.56C108.89 9.37333 109.09 10.3067 109.09 11.36ZM104.11 7.7C103.136 7.7 102.343 7.96667 101.73 8.5C101.13 9.03333 100.75 9.74667 100.59 10.64H107.25C107.13 9.74667 106.796 9.03333 106.25 8.5C105.703 7.96667 104.99 7.7 104.11 7.7Z"
        fill="white" />

</svg>
