<svg width="24" height="24" viewBox="0 0 24 24" fill="none" xmlns="http://www.w3.org/2000/svg">
<path fill-rule="evenodd" clip-rule="evenodd" d="M12 2.05885L12 2.05887L12 2.05885C9.25479 -0.686315 4.804 -0.686316 2.05883 2.05885C-0.686334 4.80401 -0.686339 9.2548 2.05882 12C-0.686338 14.7451 -0.686336 19.1959 2.05883 21.9411C4.804 24.6863 9.25479 24.6863 12 21.9411C12 21.9411 12 21.9411 12 21.9411C12 21.9411 12 21.9411 12 21.9411C14.7452 24.6863 19.196 24.6863 21.9411 21.9411C24.6863 19.1959 24.6863 14.7451 21.9411 12C24.6863 9.2548 24.6863 4.80402 21.9411 2.05885C19.196 -0.686315 14.7452 -0.686316 12 2.05885Z" fill="#636778"/>
<circle cx="15.5229" cy="9.44427" r="0.880734" fill="#3E424D"/>
<circle cx="8.47705" cy="9.44427" r="0.880734" fill="#3E424D"/>
<path fill-rule="evenodd" clip-rule="evenodd" d="M7.13852 12.3333C7.43179 12.3022 7.69455 12.5166 7.7254 12.8122C7.77591 13.2963 8.12248 14.1271 8.84112 14.8395C9.5432 15.5355 10.5808 16.0979 11.9999 16.0979C13.4189 16.0979 14.4565 15.5355 15.1586 14.8395C15.8772 14.1271 16.2238 13.2963 16.2743 12.8122C16.3052 12.5166 16.5679 12.3022 16.8612 12.3333C17.1544 12.3644 17.3672 12.6292 17.3363 12.9248C17.2558 13.6966 16.7723 14.7496 15.9073 15.607C15.0258 16.4809 13.7262 17.1743 11.9999 17.1743C10.2735 17.1743 8.9739 16.4809 8.09236 15.607C7.22738 14.7496 6.74392 13.6966 6.66337 12.9248C6.63252 12.6292 6.84526 12.3644 7.13852 12.3333Z" fill="#3E424D"/>
</svg>
