<svg width="32" height="32" viewBox="0 0 32 32" fill="none" xmlns="http://www.w3.org/2000/svg">
<path fill-rule="evenodd" clip-rule="evenodd" d="M24.2399 10.7613C24.8386 10.462 26.0959 9.44417 26.3354 7.76778C26.6347 5.6723 26.1857 4.47488 24.6889 3.57681C23.1921 2.67875 21.6953 3.27746 21.0966 3.72649C20.4979 4.17552 19.5999 4.32521 18.7018 3.72649C18.4453 3.5555 18.2528 3.37229 18.0694 3.19781C17.6107 2.76134 17.2093 2.37939 16.0076 2.37939V29.92C16.058 29.92 16.1102 29.9201 16.1642 29.9201C18.2298 29.9217 22.8193 29.9251 25.7366 27.8246C29.4786 25.1304 29.6638 20.0413 27.8321 15.8504C26.4343 12.6521 25.0554 11.4662 24.4309 10.9291C24.3559 10.8646 24.2918 10.8095 24.2399 10.7613ZM7.77531 10.7614C7.1766 10.462 5.9193 9.44421 5.67982 7.76783C5.38047 5.67234 5.8295 4.47492 7.32627 3.57686C8.82305 2.67879 10.3198 3.2775 10.9185 3.72653C11.5173 4.17557 12.4153 4.32525 13.3134 3.72653C13.5739 3.55284 13.7619 3.36655 13.9404 3.18959C14.3773 2.75657 14.7578 2.37942 16.0076 2.37942V29.9201C15.955 29.9201 15.9007 29.9201 15.8448 29.9202C13.7101 29.9217 9.19568 29.9249 6.27854 27.8246C2.5366 25.1304 2.32502 19.4427 4.18306 15.8504C5.97917 12.3779 7.21219 11.2104 7.77531 10.7614Z" fill="#CC904E"/>
<path d="M6.85218 4.77429C7.45089 3.87622 8.34896 3.87622 8.64831 3.87622C8.99784 3.87622 8.99653 4.04666 8.6483 4.32525C7.89991 4.92396 7.48082 5.22332 7.3012 6.12138C7.15152 6.86977 7.29791 7.50391 6.85218 7.01945C6.42222 6.55212 6.25347 5.67235 6.85218 4.77429Z" fill="#E1A15B" stroke="#E1A15B" stroke-linecap="round"/>
<path d="M22.0115 3.85984C22.9791 3.38145 23.7568 3.83048 24.0161 3.98016C24.3187 4.15492 24.2324 4.30188 23.7915 4.36903C22.844 4.51333 22.3314 4.56304 21.7268 5.25097C21.223 5.82426 21.0327 6.44663 20.8889 5.80421C20.7502 5.18451 21.044 4.33824 22.0115 3.85984Z" fill="#E1A15B" stroke="#E1A15B" stroke-linecap="round"/>
<path d="M15.0611 3.05198C16.0286 2.57359 16.8064 3.02262 17.0656 3.1723C17.3683 3.34706 17.282 3.49402 16.8411 3.56117C15.8936 3.70547 15.381 3.75517 14.7764 4.44311C14.2726 5.0164 14.0823 5.63877 13.9385 4.99635C13.7998 4.37665 14.0936 3.53037 15.0611 3.05198Z" fill="#E1A15B" stroke="#E1A15B" stroke-linecap="round"/>
<path d="M7.86791 13.0445C8.22714 12.805 8.41673 12.8449 8.46662 12.8948C8.54042 12.9686 8.65373 13.0445 8.31695 13.4935C7.86792 14.0922 7.36643 14.519 6.37115 16.9361C5.3234 19.4806 5.55246 21.5149 5.77244 22.1748C5.90139 22.5616 5.92212 22.7735 5.77244 22.7735C5.62275 22.7735 5.45114 22.548 5.3234 22.3245C4.72467 21.2767 4.42533 19.78 4.57501 18.5825C4.72469 17.3851 5.02404 16.1877 5.92211 14.9903C6.82017 13.7929 7.41888 13.3438 7.86791 13.0445Z" fill="#E1A15B" stroke="#E1A15B" stroke-linecap="round"/>
<path fill-rule="evenodd" clip-rule="evenodd" d="M11.4011 19.742C10.2126 20.9921 10.2317 22.9691 11.4584 24.1958C12.6852 25.4226 14.6622 25.4417 15.9123 24.2531C17.1624 25.4415 19.1394 25.4224 20.3661 24.1957C21.5928 22.969 21.6119 20.992 20.4234 19.7419C21.6119 18.4918 21.5928 16.5148 20.3661 15.2881C19.1394 14.0614 17.1623 14.0423 15.9123 15.2308C14.6622 14.0423 12.6852 14.0614 11.4584 15.2881C10.2317 16.5148 10.2126 18.4919 11.4011 19.742Z" fill="url(#paint0_linear_4536_2498)"/>
<path fill-rule="evenodd" clip-rule="evenodd" d="M24.2625 11.6703C16.9946 9.03056 10.0978 10.5812 7.62025 11.6548C7.25558 11.8128 6.83766 11.6313 6.68679 11.2493C6.53592 10.8674 6.70924 10.4297 7.0739 10.2717C9.8098 9.08623 17.0717 7.47432 24.7308 10.2562C25.1036 10.3916 25.3011 10.8179 25.1718 11.2085C25.0425 11.599 24.6354 11.8057 24.2625 11.6703Z" fill="#F8C41F"/>
<path fill-rule="evenodd" clip-rule="evenodd" d="M15.6686 9.32395C15.8793 9.67341 15.7797 10.1356 15.446 10.3563C15.0583 10.6128 14.426 11.1485 13.8693 11.881C13.3122 12.614 12.8693 13.4929 12.7739 14.4419C12.7326 14.853 12.3809 15.1511 11.9885 15.1079C11.596 15.0646 11.3113 14.6963 11.3526 14.2852C11.4859 12.9591 12.091 11.8174 12.7511 10.9489C13.4115 10.0799 14.1654 9.4331 14.6829 9.09083C15.0165 8.87012 15.4579 8.97449 15.6686 9.32395Z" fill="#F8C41F"/>
<path fill-rule="evenodd" clip-rule="evenodd" d="M16.0323 9.32395C15.8216 9.67341 15.9213 10.1356 16.2549 10.3563C16.6426 10.6128 17.2749 11.1485 17.8317 11.881C18.3887 12.614 18.8317 13.4929 18.927 14.4419C18.9683 14.853 19.32 15.1511 19.7125 15.1079C20.105 15.0646 20.3896 14.6963 20.3483 14.2852C20.215 12.9591 19.6099 11.8174 18.9498 10.9489C18.2894 10.0799 17.5355 9.4331 17.0181 9.09083C16.6844 8.87012 16.2431 8.97449 16.0323 9.32395Z" fill="#F8C41F"/>
<path d="M12.9961 11.5157C13.09 11.4597 13.1259 11.4835 13.1321 11.5024C13.1413 11.5304 13.1585 11.5613 13.0521 11.6858C12.9102 11.8518 12.7715 11.9596 12.3676 12.6772C11.9423 13.4326 11.8227 14.0983 11.814 14.3228C11.8089 14.4543 11.7958 14.5235 11.7649 14.5148C11.7339 14.5061 11.717 14.4238 11.709 14.3447C11.6712 13.974 11.7322 13.4765 11.8614 13.1011C11.9906 12.7257 12.1507 12.359 12.4345 12.027C12.7183 11.695 12.8788 11.5857 12.9961 11.5157Z" fill="#FFD85B" stroke="#FFD85B" stroke-width="0.5" stroke-linecap="round"/>
<path d="M13.1341 9.28625C13.2936 9.30609 13.2793 9.34669 13.2522 9.36451C13.212 9.39086 13.1726 9.42455 12.8899 9.44662C12.5129 9.47606 12.2354 9.4651 10.7537 9.7278C9.1939 10.0043 7.9992 10.4132 7.61877 10.5714C7.39576 10.6642 7.27118 10.7062 7.26385 10.6799C7.25651 10.6535 7.38176 10.5825 7.50802 10.5195C8.09977 10.2243 8.9724 9.90051 9.68958 9.70994C10.4068 9.51936 11.1313 9.35514 11.8852 9.29628C12.639 9.23742 12.9346 9.26145 13.1341 9.28625Z" fill="#FFD85B" stroke="#FFD85B" stroke-width="0.5" stroke-linecap="round"/>
<path d="M18.8191 9.37917C18.6593 9.39665 18.6731 9.43746 18.7 9.45567C18.7398 9.48262 18.7788 9.51689 19.0611 9.54313C19.4376 9.57812 19.7153 9.57126 21.1933 9.8558C22.7493 10.1553 23.9383 10.5818 24.3166 10.7456C24.5383 10.8417 24.6623 10.8855 24.67 10.8593C24.6777 10.8331 24.5534 10.7602 24.428 10.6953C23.8403 10.3915 22.9721 10.0548 22.2576 9.85365C21.543 9.65251 20.8208 9.47761 20.0678 9.40763C19.3148 9.33765 19.0189 9.35731 18.8191 9.37917Z" fill="#FFD85B" stroke="#FFD85B" stroke-width="0.5" stroke-linecap="round"/>
<path d="M18.8094 11.4774C18.7186 11.4162 18.6815 11.4379 18.6743 11.4564C18.6637 11.4838 18.645 11.5137 18.7448 11.644C18.878 11.8178 19.0109 11.9333 19.3773 12.6726C19.763 13.4509 19.8482 14.1225 19.8453 14.3471C19.8437 14.4787 19.8532 14.5485 19.8845 14.5416C19.9158 14.5347 19.937 14.4535 19.9491 14.3749C20.0059 14.0068 19.9706 13.5067 19.8609 13.1245C19.7512 12.7424 19.6102 12.3672 19.3439 12.0196C19.0777 11.6721 18.923 11.5539 18.8094 11.4774Z" fill="#FFD85B" stroke="#FFD85B" stroke-width="0.5" stroke-linecap="round"/>
<defs>
<linearGradient id="paint0_linear_4536_2498" x1="21.3007" y1="24.2515" x2="10.5238" y2="14.2231" gradientUnits="userSpaceOnUse">
<stop stop-color="#804C20"/>
<stop offset="1" stop-color="#BA7E37"/>
</linearGradient>
</defs>
</svg>
