<svg width="278" height="278" viewBox="0 0 278 278" fill="none" xmlns="http://www.w3.org/2000/svg">
    <defs>
        <filter id="filter0_f_3755_1260" x="27" y="87" width="68" height="81"
            filterUnits="userSpaceOnUse" color-interpolation-filters="sRGB">
            <feFlood flood-opacity="0" result="BackgroundImageFix" />
            <feBlend mode="normal" in="SourceGraphic" in2="BackgroundImageFix" result="shape" />
            <feGaussianBlur stdDeviation="10" result="effect1_foregroundBlur_3755_1260" />
        </filter>
        <filter id="filter1_f_3755_1260" x="113" y="64" width="82" height="142"
            filterUnits="userSpaceOnUse" color-interpolation-filters="sRGB">
            <feFlood flood-opacity="0" result="BackgroundImageFix" />
            <feBlend mode="normal" in="SourceGraphic" in2="BackgroundImageFix" result="shape" />
            <feGaussianBlur stdDeviation="10" result="effect1_foregroundBlur_3755_1260" />
        </filter>
        <linearGradient id="paint0_linear_3755_1260" x1="97.3258" y1="127.072" x2="134.789"
            y2="143.268" gradientUnits="userSpaceOnUse">
            <stop stop-color="#F2BD5D" />
            <stop offset="0.878472" stop-color="#894400" />
        </linearGradient>
    </defs>
    <path
        d="M243.925 130.028C240.001 118.385 235.976 106.539 228.799 96.7137C218.048 81.9932 200.29 73.4029 182.541 69.9343C178.399 62.714 174.282 54.9561 167.251 50.6836C157.651 44.8509 145.057 47.1204 134.77 52.0957C124.484 57.0713 114.65 63.7648 104.258 68.5C98.9957 70.898 94.2584 73 88.8472 75.4341C81.1395 78.5205 73.2584 81 62.2584 86.5C62.2584 86.5 14.2584 110.5 31.2099 169.15C32.4713 172.716 33.9242 176.227 35.3735 179.683L41.1383 193.44C41.1383 193.44 44.5022 214.115 65.2484 205.319L117.581 178.613C113.777 194.639 110.48 212.818 119.591 226.036C122.827 230.731 127.879 234.508 133.55 234.506C138.114 234.505 142.366 232.121 146.383 229.804C164.641 219.275 182.898 208.746 201.155 198.218C208.548 193.956 215.968 189.673 222.717 184.384C228.201 180.085 233.196 175.153 237.881 169.951C241.642 165.775 245.303 161.252 246.95 155.856C249.545 147.352 246.727 138.338 243.925 130.028Z"
        fill="#F2BD5D" />
    <g filter="url(#filter0_f_3755_1260)">
        <path
            d="M49.709 123.555C54.3025 110.949 61.652 105.696 67.1642 107.272C79.1071 110.686 74.7813 125.795 71.1654 134.314C67.4907 142.972 61.0598 150.072 53.7103 147.446C46.8477 144.994 44.7812 137.08 49.709 123.555Z"
            fill="#FAD881" />
    </g>
    <path opacity="0.5"
        d="M65.2493 205.321C65.2493 205.321 93.7707 77.7935 146.081 59.4718C146.081 59.4718 157.76 55.0846 155.555 67.0905L117.581 178.615L65.2493 205.321Z"
        fill="url(#paint0_linear_3755_1260)" />
    <path
        d="M180.259 203C180.259 203 162.6 202.133 153.215 202.907C143.066 203.744 136.794 205.332 131.879 208.634C126.964 211.937 125.998 216.603 125.578 220.745C125.278 223.683 127.38 226.15 129.819 227.086C134.368 228.83 139.62 226.536 144.155 223.914C154.756 217.784 164.277 208.344 175.692 205.108L180.259 203Z"
        fill="#C66F12" />
    <path fill-rule="evenodd" clip-rule="evenodd"
        d="M241.192 139.611C241.029 139.232 240.588 139.058 240.206 139.222C239.824 139.387 239.646 139.828 239.809 140.207C243.911 149.777 238.684 159.311 230.259 167.91C222.915 175.405 213.356 181.967 206.148 186.914L206.148 186.914C205.12 187.62 204.139 188.293 203.22 188.931C196.398 193.667 189.143 197.384 183.186 200.436L183.185 200.437C181.251 201.428 179.454 202.348 177.853 203.211C174.673 204.395 170.034 206.302 163.525 209.245C162.96 209.5 158.212 211.825 157.095 212.452C154.729 213.78 152.808 214.85 151.127 215.785C147.872 217.598 145.519 218.908 142.585 220.619C137.963 223.314 132.516 224.899 129.94 223.906C128.203 223.237 126.639 220.943 125.963 219.107C125.787 219.582 125.667 220.084 125.612 220.619C125.301 223.63 127.143 226.043 129.917 227.11C134.543 228.889 139.894 226.528 144.515 223.833C154.166 218.204 171.391 208.494 180.408 203.551C181.451 203.007 182.564 202.436 183.733 201.838C189.723 198.767 197.169 194.95 204.074 190.157C204.982 189.526 205.955 188.859 206.979 188.156L206.983 188.153C214.179 183.215 223.874 176.562 231.331 168.952C239.816 160.291 245.686 150.095 241.192 139.611Z"
        fill="#C66F12" />
    <path
        d="M152.836 59.965C155.202 61.4067 155.18 64.5901 154.723 67.0886C154.441 68.641 153.956 70.1315 153.427 71.6154C152.71 73.6306 151.996 75.6488 151.286 77.6671C148.453 85.7286 145.684 93.8107 142.948 101.905C140.203 110.022 137.488 118.152 134.772 126.28C132.068 134.372 129.361 142.463 126.617 150.542C123.87 158.635 121.085 166.717 118.23 174.772C117.867 175.798 117.502 176.826 117.135 177.852C116.82 178.735 117.684 178.954 117.996 178.079C120.921 169.88 124.281 161.758 127.088 153.519C129.902 145.258 132.675 136.983 135.442 128.707C138.196 120.47 140.944 112.23 143.722 104.001C146.516 95.7234 149.341 87.4564 152.231 79.2115C152.951 77.1555 153.676 75.102 154.406 73.0497C154.972 71.457 155.561 69.8739 155.931 68.2234C156.527 65.5549 156.839 62.81 155.096 60.5643C154.671 60.0148 153.768 59.1628 153.102 58.9872C152.436 58.8116 152.062 59.4937 152.836 59.965Z"
        fill="#C66F12" />
    <path
        d="M181.851 70.369C184.073 74.2869 186.926 77.757 189.731 81.2357C192.405 84.5515 195.054 87.925 197.071 91.721C198.182 93.8132 199.071 96.0226 199.63 98.3493C199.721 98.7274 200.154 98.9341 200.509 98.8198C200.89 98.6971 201.08 98.2884 200.99 97.9093C199.967 93.6529 197.851 89.7903 195.391 86.2658C192.871 82.6554 189.965 79.3546 187.295 75.8628C185.765 73.861 183.948 72.0224 182.698 69.8198C182.243 69.0227 181.398 69.5697 181.851 70.369Z"
        fill="#C66F12" />
    <g filter="url(#filter1_f_3755_1260)">
        <path
            d="M134.736 167.387C142.326 147.332 156.487 98.8261 163.197 87.169C182.327 67.7641 174.409 142.82 165.87 167.387C157.332 191.953 125.25 192.455 134.736 167.387Z"
            fill="#FAD881" />
    </g>
</svg>
