<svg width="278" height="278" viewBox="0 0 278 278" fill="none" xmlns="http://www.w3.org/2000/svg">
    <defs>
        <filter id="filter0_f_3867_2340" x="158.936" y="143.197" width="115.886" height="90.568"
            filterUnits="userSpaceOnUse" color-interpolation-filters="sRGB">
            <feFlood flood-opacity="0" result="BackgroundImageFix" />
            <feBlend mode="normal" in="SourceGraphic" in2="BackgroundImageFix" result="shape" />
            <feGaussianBlur stdDeviation="10" result="effect1_foregroundBlur_3867_2340" />
        </filter>
        <filter id="filter1_f_3867_2340" x="5.36741" y="76.1107" width="111.637" height="121.548"
            filterUnits="userSpaceOnUse" color-interpolation-filters="sRGB">
            <feFlood flood-opacity="0" result="BackgroundImageFix" />
            <feBlend mode="normal" in="SourceGraphic" in2="BackgroundImageFix" result="shape" />
            <feGaussianBlur stdDeviation="10" result="effect1_foregroundBlur_3867_2340" />
        </filter>
        <linearGradient id="paint0_linear_3867_2340" x1="165.198" y1="161.843" x2="136.089"
            y2="144.232" gradientUnits="userSpaceOnUse">
            <stop stop-color="#C66F12" stop-opacity="0.8" />
            <stop offset="1" stop-color="#F2BD5D" />
        </linearGradient>
        <linearGradient id="paint1_linear_3867_2340" x1="113.687" y1="101.479" x2="147.03"
            y2="81.908" gradientUnits="userSpaceOnUse">
            <stop stop-color="#C66F12" stop-opacity="0.8" />
            <stop offset="1" stop-color="#F2BD5D" />
        </linearGradient>
    </defs>
    <path
        d="M131.489 139.752C129.466 144.162 130.19 150.911 131.46 155.404C135.296 172.515 133.161 187.799 135.067 205.622C135.464 209.334 136.512 213.654 138.895 216.126C140.848 218.15 143.636 218.835 146.318 219.347C154.606 220.927 163.075 221.523 171.527 222.117C190.756 223.468 209.986 224.819 229.216 226.17L247.714 227.016C250.996 226.964 254.999 226.979 257.198 226.824C260.863 226.565 262.366 226.077 264.702 224.479C264.702 224.479 274.338 218.84 265.041 201.721L261.961 195.822C257.268 187.731 254.921 183.649 252.2 179.751C237.779 159.087 237.344 154.796 225.141 133.061C218.038 120.409 210.196 106.356 196.997 102.948C195.078 102.452 193.322 101.908 190.973 102.013C188.906 101.963 186.805 102.723 184.703 103.482C164.624 110.738 156.258 114.969 140.196 128.564C136.868 131.382 133.042 136.369 131.489 139.752Z"
        fill="#F2BD5D" />
    <path
        d="M147.231 207.869C151.264 206.516 162.857 181.32 168.986 166.611C174 155.971 176.42 151.473 182.344 140.939C184.972 136.266 187.994 131.281 190.174 127.483C193.428 121.816 195.456 112.3 194.378 110.043C193.467 108.137 192.023 108.446 190.439 108.652C181.008 109.883 166.892 119.551 156.704 125.832C154.444 127.074 146.649 132.913 143.758 134.917C140.868 136.922 138.565 140.139 137.488 142.705C136.41 145.272 136.537 147.982 137.505 151.779C138.211 154.55 139.434 160.243 139.589 160.902C141.741 177.495 139.623 185.367 140.946 202.411C141.27 206.577 143.847 209.004 147.231 207.869Z"
        fill="url(#paint0_linear_3867_2340)" />
    <g filter="url(#filter0_f_3867_2340)">
        <path
            d="M197.887 211.217C181.842 211.605 175.441 210.042 180.786 195.897C184.982 184.79 190.122 176.309 192.289 173.276C204.427 142.306 242.711 191.263 253.352 205.651C263.993 220.039 213.932 210.828 197.887 211.217Z"
            fill="#FAD881" />
    </g>
    <path
        d="M147.425 215.497C149.026 216.13 150.819 215.855 152.346 215.121C154.016 214.319 155.296 212.944 156.255 211.386C157.356 209.597 158.082 207.596 158.887 205.667C159.745 203.61 160.616 201.559 161.498 199.513C165.085 191.192 168.873 182.955 172.853 174.811C176.836 166.659 181.012 158.6 185.374 150.641C187.559 146.655 189.791 142.693 192.069 138.758C194.088 135.27 196.164 131.805 197.913 128.172C199.595 124.68 200.98 121.028 201.6 117.196C202.211 113.416 202.076 109.143 199.696 105.968C199.125 105.207 198.432 104.566 197.645 104.03C197.061 103.633 196.491 104.575 197.074 104.971C200.357 107.207 201.064 111.547 200.744 115.246C200.416 119.03 199.194 122.716 197.641 126.173C196.061 129.692 194.123 133.04 192.184 136.375C190.003 140.126 187.852 143.895 185.748 147.69C181.465 155.419 177.358 163.244 173.432 171.158C169.536 179.014 165.82 186.958 162.284 194.981C160.526 198.971 158.816 202.983 157.146 207.01C155.791 210.281 153.97 214.137 150.029 214.713C149.247 214.827 148.47 214.733 147.739 214.444C147.081 214.184 146.772 215.239 147.425 215.497Z"
        fill="#C97316" />
    <path
        d="M152.104 72.4848C149.077 68.566 144.795 68.3457 140.031 67.8904C122.105 66.1771 105.593 57.3775 88.2751 52.2461C84.6685 51.1775 80.7209 50.2865 77.251 51.8256C74.4091 53.0862 72.3747 55.7732 70.5535 58.416C64.9258 66.583 60.1096 75.3388 55.3046 84.0762C44.3719 103.956 33.4393 123.836 22.5066 143.716L13.6369 159.402C12.5496 161.214 12.0096 162.187 11.6237 162.907C9.93414 166.061 8.63666 170.236 9.09192 174.991L9.08415 174.995C9.08415 174.995 9.47003 198.988 30.9353 195.842C39.8888 193.987 41.9718 192.985 44.0553 192.321C69.3633 184.248 83.9129 181.002 110.011 176.768C125.203 174.303 142.052 171.616 151.834 158.967C153.257 157.127 154.641 155.481 155.728 152.944C156.816 150.769 157.178 148.232 157.54 145.695C161.003 121.458 160.077 106.191 155.697 83.6742C154.789 79.0086 154.426 75.492 152.104 72.4848Z"
        fill="#F2BD5D" />
    <g filter="url(#filter1_f_3867_2340)">
        <path
            d="M54.6586 114.44C62.6608 96.7745 67.4323 90.4126 77.6519 101.884C85.677 110.893 90.7964 119.883 92.4557 123.456C114.605 149.05 49.6499 171.313 30.8788 177.19C12.1078 183.067 46.6564 132.105 54.6586 114.44Z"
            fill="#FAD881" />
    </g>
    <path
        d="M83.9674 61.2496C94.3215 73.3886 103.377 84.7442 112.207 98.1794C118.242 107.362 123.901 116.82 129.481 126.324C131.517 129.791 133.976 134.308 136.52 137.36C140.144 141.709 143.406 144.971 145.943 144.246C148.062 143.64 148.596 142.386 149.205 140.621C152.829 130.111 151.646 120.256 151.017 106.915C151.017 104.016 149.587 93.3933 149.205 89.519C148.822 85.6447 147.03 81.908 145.218 79.7334C143.406 77.5588 140.854 76.6057 136.882 76.1091C133.983 75.7467 128.142 74.7594 127.459 74.6594C111.517 72.3263 104.988 64.8739 88.679 59.4375C84.6923 58.1086 82.4494 59.4699 83.9674 61.2496Z"
        fill="url(#paint1_linear_3867_2340)" />
    <path
        d="M78.3934 54.4988C77.0709 55.6017 76.4537 57.3073 76.3664 58.9985C76.2711 60.8489 76.8647 62.6314 77.773 64.2195C78.8161 66.0428 80.2249 67.6386 81.5327 69.2693C82.9269 71.0075 84.3109 72.7539 85.6847 74.5086C91.271 81.6429 96.6867 88.9131 101.93 96.3069C107.178 103.708 112.253 111.234 117.151 118.875C119.603 122.703 122.012 126.559 124.375 130.444C126.47 133.887 128.517 137.369 130.868 140.644C133.128 143.793 135.671 146.758 138.738 149.138C141.763 151.485 145.579 153.412 149.506 152.843C150.448 152.707 151.343 152.406 152.19 151.972C152.818 151.65 152.264 150.698 151.637 151.019C148.103 152.831 143.953 151.373 140.859 149.32C137.695 147.22 135.045 144.382 132.754 141.363C130.421 138.29 128.411 134.985 126.412 131.687C124.163 127.975 121.886 124.281 119.562 120.617C114.829 113.155 109.926 105.802 104.859 98.5655C99.8292 91.3821 94.6355 84.3152 89.2862 77.3695C86.6254 73.9146 83.923 70.4924 81.187 67.0973C78.9652 64.3407 76.4527 60.8956 77.8346 57.1607C78.1088 56.4196 78.564 55.7819 79.1674 55.2785C79.7109 54.8256 78.9325 54.0492 78.3934 54.4988Z"
        fill="#C97316" />
</svg>
