<svg width="24" height="24" viewBox="0 0 24 24" fill="none" xmlns="http://www.w3.org/2000/svg">
<path d="M21.9673 15.6098L19.4155 5.77271H12.053H11.9313H4.56883L1.95379 15.8534H1.9555C1.85502 16.2062 1.80005 16.5784 1.80005 16.9635C1.80005 19.1928 3.60308 21 5.82737 21H18.1727C20.397 21 22.2 19.1928 22.2 16.9635C22.2 16.4885 22.1176 16.033 21.9673 15.6098Z" fill="#9A6538"/>
<path d="M22.2 16.9633C22.2 19.1926 20.397 20.9998 18.1727 20.9998H5.82737C3.60308 20.9998 1.80005 19.1926 1.80005 16.9633C1.80005 14.7339 3.60308 12.9268 5.82737 12.9268H18.1727C20.397 12.9268 22.2 14.7339 22.2 16.9633Z" fill="#CC904E"/>
<path d="M20.8286 4.92456C20.7334 3.59988 19.9114 2.94848 18.4217 3.0166C16.4854 3.1052 14.0243 3.14486 12.0571 3.14486C10.1902 3.14486 7.52091 3.18563 5.6926 3.0166C4.20722 2.87936 3.38082 3.59988 3.28567 4.92456C3.18066 6.38568 3.04262 7.52418 3.58641 8.8525C4.36701 10.7588 6.11678 11.0905 6.99625 11.0905C7.87571 11.0905 12.0571 11.0905 12.0571 11.0905C12.0571 11.0905 16.2385 11.0905 17.118 11.0905C17.9974 11.0905 19.7473 10.7588 20.5278 8.8525C21.0716 7.52418 20.9335 6.38568 20.8286 4.92456Z" fill="#CC904E"/>
<path d="M14.4026 17.3738C14.4026 17.3738 14.0295 8.49267 14.0092 7.78093C13.9892 7.07707 13.2561 7.14599 13.2561 7.14599H11.9524H10.6485C10.6485 7.14599 9.91798 7.06899 9.89543 7.78093C9.87318 8.4847 9.50206 17.3738 9.50206 17.3738C9.50206 17.3738 9.44588 17.8355 9.8168 18.2396C10.1878 18.6436 11.1993 19.4286 11.1993 19.4286C11.1993 19.4286 11.6433 19.8384 11.9524 19.8384C12.2614 19.8384 12.7054 19.4286 12.7054 19.4286C12.7054 19.4286 13.717 18.6436 14.0879 18.2396C14.4588 17.8355 14.4026 17.3738 14.4026 17.3738Z" fill="#865124"/>
<path d="M14.2656 11.9021H9.63927C9.04393 11.9021 8.56116 12.386 8.56116 12.9826V15.9767C8.56116 16.5733 9.04393 17.0571 9.63927 17.0571H14.2656C14.8609 17.0571 15.3437 16.5733 15.3437 15.9767V12.9826C15.3437 12.386 14.8609 11.9021 14.2656 11.9021ZM14.1829 15.9996H9.72183V12.9598H14.183V15.9996H14.1829Z" fill="#E2BB41"/>
<path d="M7.55997 9.8374C6.48609 9.8374 5.9574 9.92993 5.24426 9.0974C4.60784 8.35448 4.32029 7.31155 4.53736 4.92838L4.69463 3.073C3.83671 3.28219 3.35676 3.93449 3.28567 4.92455C3.18066 6.38567 3.04262 7.52417 3.58641 8.85249C4.36701 10.7588 6.11678 11.0905 6.99625 11.0905C7.34552 11.0905 7.712 11.0905 8.63396 11.0905C8.60023 10.7166 8.42897 9.8374 7.55997 9.8374Z" fill="#D7AB71"/>
<path d="M16.6549 9.83754C17.7288 9.83754 18.2575 9.93008 18.9706 9.09755C19.607 8.35462 19.8946 7.31169 19.6775 4.92853L19.5202 3.07324C20.3782 3.28243 20.8581 3.93474 20.9292 4.92479C21.0342 6.38591 21.1722 7.52441 20.6285 8.85273C19.8479 10.7591 18.0981 11.0908 17.2186 11.0908C16.8694 11.0908 16.4022 11.0908 15.4802 11.0908C15.514 10.7167 15.7859 9.83754 16.6549 9.83754Z" fill="#D7AB71"/>
</svg>
