<svg width="28" height="28" viewBox="0 0 28 28" fill="none" xmlns="http://www.w3.org/2000/svg">
    <path fill-rule="evenodd" clip-rule="evenodd"
        d="M22.1686 13.9445C22.1686 13.6301 22.1499 13.3198 22.1167 13.014C21.6847 9.06114 18.5342 5.91386 14.5775 5.48059V3.14486C14.5775 2.62898 14.159 2.21057 13.6425 2.21057V2.21155C13.126 2.21143 12.7077 2.62948 12.7077 3.14525V5.48068C8.75254 5.91394 5.6024 9.05945 5.1688 13.0109H3.14565C2.62952 13.0109 2.21079 13.4288 2.21057 13.9445M22.1686 13.9445H22.1687ZM22.1687 13.9445C22.1687 13.6301 22.15 13.3199 22.1168 13.0142C22.1226 13.014 22.1281 13.0132 22.1337 13.0124C22.1397 13.0115 22.1458 13.0106 22.1521 13.0106H24.8542C25.3708 13.0106 25.7896 13.429 25.7896 13.9446H25.7895C25.7891 14.4605 25.3704 14.8782 24.8541 14.8782H22.152C22.1457 14.8782 22.1397 14.8773 22.1336 14.8764C22.1281 14.8756 22.1225 14.8747 22.1167 14.8746C21.685 18.8275 18.5342 21.9748 14.5775 22.4084V24.8549C14.5775 25.3707 14.1592 25.7887 13.6428 25.7889V25.7899C13.1262 25.7899 12.7077 25.3715 12.7077 24.8559V22.4093C8.75254 21.9761 5.6027 18.8306 5.1691 14.8791C5.16909 14.879 5.16907 14.8789 5.16906 14.8787H3.14565C2.62952 14.8787 2.21079 14.4606 2.21057 13.9449M20.2988 13.9442C20.2988 10.2782 17.313 7.29586 13.6428 7.29538V7.29636H13.6425C9.97246 7.29636 6.98646 10.279 6.98646 13.9452C6.98646 17.6115 9.97258 20.5941 13.6425 20.5943V20.5933C17.3128 20.5933 20.2988 17.6106 20.2988 13.9442Z"
        fill="white" />
    <path fill-rule="evenodd" clip-rule="evenodd"
        d="M13.6425 18.2481C11.2633 18.2481 9.33459 16.3212 9.33459 13.9445C9.33459 11.5681 11.2633 9.64094 13.6425 9.64124V13.9445V18.2481ZM13.6428 9.64124C16.022 9.64124 17.9507 11.5681 17.9507 13.9445C17.9507 16.3212 16.022 18.2481 13.6428 18.2481V13.9445V9.64124Z"
        fill="white" />
</svg>
