<svg width="28" height="28" viewBox="0 0 28 28" fill="none" xmlns="http://www.w3.org/2000/svg">
    <defs>
        <clipPath id="clip0_3774_1343">
            <rect width="28" height="28" fill="white" />
        </clipPath>
    </defs>
    <g clip-path="url(#clip0_3774_1343)">
        <path
            d="M11.8447 24.4387C11.9021 24.605 12.0107 24.7488 12.1549 24.8496C12.299 24.9504 12.4714 25.003 12.6472 24.9999C12.8231 24.9967 12.9935 24.9381 13.1339 24.8322C13.2744 24.7264 13.3778 24.5788 13.4294 24.4106L15.883 16.4334C15.9229 16.3032 15.9941 16.1848 16.0904 16.0885C16.1867 15.9923 16.305 15.921 16.4352 15.8811L24.4107 13.4322C24.5789 13.3806 24.7264 13.2772 24.8322 13.1367C24.9381 12.9962 24.9967 12.8258 24.9999 12.6499C25.003 12.474 24.9504 12.3016 24.8496 12.1574C24.7488 12.0132 24.605 11.9046 24.4388 11.8471L6.10188 5.0444C5.95478 4.99436 5.79663 4.98644 5.64527 5.02154C5.49391 5.05663 5.35537 5.13334 5.24529 5.24302C5.13521 5.35269 5.05797 5.49095 5.02228 5.6422C4.9866 5.79345 4.99389 5.95167 5.04334 6.09899L11.8447 24.4387Z"
            fill="#45E2AA" />
    </g>
</svg>
