<svg width="28" height="28" viewBox="0 0 28 28" fill="none" xmlns="http://www.w3.org/2000/svg">
<path d="M14 28C21.732 28 28 21.732 28 14C28 6.26801 21.732 0 14 0C6.26801 0 0 6.26801 0 14C0 21.732 6.26801 28 14 28Z" fill="#D8A988"/>
<path d="M2.32556 14C2.32556 20.447 7.55301 25.6755 14.0011 25.6755V2.32446C7.55301 2.32446 2.32556 7.55191 2.32556 14Z" fill="#CC9C7B"/>
<path d="M14.0012 2.32446V25.6755C20.4482 25.6755 25.6767 20.447 25.6767 14C25.6767 7.55191 20.4493 2.32446 14.0012 2.32446Z" fill="#B18363"/>
<path d="M18.5981 11.4134C18.5981 12.9089 17.4995 14.0075 16.4158 14.1985C17.6099 14.3906 18.9483 15.4244 18.9483 17.0962C18.9483 19.5947 16.8308 21.1561 14.1402 21.1561C11.2903 21.1561 9.52301 19.5639 9.31604 17.0643H12.167C12.2784 18.1003 12.9312 18.7212 14.1402 18.7212C15.3342 18.7212 16.1303 18.0684 16.1303 17.1121C16.1303 16.0295 15.2228 15.4563 13.8695 15.4563H12.5799V13.1H13.8695C15.0477 13.1 15.7493 12.4621 15.7493 11.476C15.7493 10.5207 15.1113 9.93165 14.0298 9.93165C12.8994 9.93165 12.374 10.8392 12.374 11.7626H9.52301C9.52301 9.29587 11.3858 7.5127 14.0446 7.5127C16.7353 7.5127 18.5981 9.08783 18.5981 11.4134Z" fill="#A1785C"/>
<path d="M18.3328 11.148C18.3328 12.6435 17.2343 13.7421 16.1506 13.9331C17.3446 14.1253 18.6831 15.1591 18.6831 16.8308C18.6831 19.3293 16.5656 20.8907 13.8749 20.8907C11.025 20.8907 9.25776 19.2986 9.05078 16.7989H11.9017C12.0132 17.8349 12.666 18.4558 13.8749 18.4558C15.069 18.4558 15.865 17.803 15.865 16.8467C15.865 15.7641 14.9575 15.1909 13.6042 15.1909H12.3146V12.8346H13.6042C14.7824 12.8346 15.484 12.1967 15.484 11.2106C15.484 10.2554 14.8461 9.66627 13.7645 9.66627C12.6341 9.66627 12.1087 10.5738 12.1087 11.4972H9.25776C9.25776 9.03049 11.1205 7.24731 13.7794 7.24731C16.47 7.24731 18.3328 8.82245 18.3328 11.148Z" fill="#FFDFC9"/>
</svg>
