<svg width="28" height="28" viewBox="0 0 28 28" fill="none" xmlns="http://www.w3.org/2000/svg">
<path d="M14 28C21.732 28 28 21.732 28 14C28 6.26801 21.732 0 14 0C6.26802 0 0 6.26801 0 14C0 21.732 6.26802 28 14 28Z" fill="#DBDCDC"/>
<path d="M2.32446 14C2.32446 20.447 7.55191 25.6755 14 25.6755V2.32446C7.55297 2.32446 2.32446 7.55191 2.32446 14Z" fill="#C8C9CA"/>
<path d="M14.0011 2.32446V25.6755C20.4481 25.6755 25.6766 20.447 25.6766 14C25.6766 7.55191 20.4481 2.32446 14.0011 2.32446Z" fill="#B5B4B5"/>
<path d="M18.6618 11.5597C18.6618 12.9119 18.009 14.0742 15.7323 16.4316L13.8685 18.357H18.9165V20.8088H9.63452V19.153L13.8855 14.7747C15.4457 13.1667 15.8109 12.3229 15.8109 11.5905C15.8109 10.6363 15.2865 9.99837 14.0277 9.99837C12.8506 9.99837 12.2127 10.9536 12.2127 11.9408H9.36279C9.36279 9.39443 11.2893 7.48389 14.0277 7.48389C16.9423 7.48495 18.6618 9.20338 18.6618 11.5597Z" fill="#9F9E9F"/>
<path d="M18.3803 11.267C18.3803 12.6192 17.7275 13.7815 15.4508 16.1388L13.587 18.0642H18.6351V20.5161H9.35302V18.8603L13.604 14.482C15.1642 12.8739 15.5294 12.0301 15.5294 11.2978C15.5294 10.3435 15.005 9.70564 13.7462 9.70564C12.5691 9.70564 11.9312 10.6609 11.9312 11.648H9.0813C9.0813 9.1017 11.0078 7.19116 13.7462 7.19116C16.6608 7.19116 18.3803 8.90958 18.3803 11.267Z" fill="#FCFCFC"/>
</svg>
