<svg width="28" height="28" viewBox="0 0 28 28" fill="none" xmlns="http://www.w3.org/2000/svg">
<path d="M14 28C21.732 28 28 21.732 28 14C28 6.26801 21.732 0 14 0C6.26801 0 0 6.26801 0 14C0 21.732 6.26801 28 14 28Z" fill="#F7D772"/>
<path d="M2.32446 14C2.32446 20.447 7.55191 25.6755 14 25.6755V2.32446C7.55297 2.32446 2.32446 7.55191 2.32446 14Z" fill="#F6B75B"/>
<path d="M14.0009 2.32446V25.6755C20.4479 25.6755 25.6764 20.447 25.6764 14C25.6753 7.55191 20.4479 2.32446 14.0009 2.32446Z" fill="#E9A83E"/>
<path d="M16.0624 21.0052H13.1807V10.5461H10.8881V8.03052H16.0624V21.0052Z" fill="#F39919"/>
<path d="M15.6813 20.6402H12.7996V10.1811H10.507V7.66553H15.6813V20.6402Z" fill="#F6E7B6"/>
</svg>
