<svg width="32" height="18" viewBox="0 0 32 18" fill="none" xmlns="http://www.w3.org/2000/svg">
    <path
        d="M1.744 18C1.376 18 1.056 17.864 0.784 17.592C0.512 17.32 0.376 17 0.376 16.632V6.888C0.376 6.52 0.512 6.2 0.784 5.928C1.056 5.656 1.376 5.52 1.744 5.52H2.368C2.736 5.52 3.056 5.656 3.328 5.928C3.6 6.2 3.736 6.52 3.736 6.888V16.632C3.736 17 3.6 17.32 3.328 17.592C3.056 17.864 2.736 18 2.368 18H1.744ZM1.744 2.88C1.376 2.88 1.056 2.744 0.784 2.472C0.512 2.2 0.376 1.88 0.376 1.512V1.368C0.376 1 0.512 0.679999 0.784 0.407999C1.056 0.135999 1.376 -1.43051e-06 1.744 -1.43051e-06H2.368C2.736 -1.43051e-06 3.056 0.135999 3.328 0.407999C3.6 0.679999 3.736 1 3.736 1.368V1.512C3.736 1.88 3.6 2.2 3.328 2.472C3.056 2.744 2.736 2.88 2.368 2.88H1.744ZM9.87738 8.328C9.55738 8.328 9.28538 8.216 9.06138 7.992C8.83738 7.752 8.72538 7.472 8.72538 7.152C8.72538 6.832 8.83738 6.56 9.06138 6.336C9.28538 6.112 9.55738 6 9.87738 6H11.1494C11.2934 6 11.3654 5.928 11.3654 5.784V5.208C11.3654 3.48 11.7414 2.224 12.4934 1.44C13.2454 0.639999 14.4374 0.24 16.0694 0.24C16.6134 0.24 17.0854 0.271999 17.4854 0.335999C17.8214 0.383999 18.0934 0.551999 18.3014 0.839999C18.5254 1.112 18.6374 1.424 18.6374 1.776C18.6374 2.064 18.5174 2.296 18.2774 2.472C18.0374 2.632 17.7734 2.688 17.4854 2.64C17.1654 2.608 16.9334 2.592 16.7894 2.592C15.9734 2.592 15.4134 2.768 15.1094 3.12C14.8214 3.456 14.6774 4.12 14.6774 5.112V5.784C14.6774 5.928 14.7494 6 14.8934 6H17.2454C17.5654 6 17.8374 6.112 18.0614 6.336C18.2854 6.56 18.3974 6.832 18.3974 7.152C18.3974 7.472 18.2854 7.752 18.0614 7.992C17.8374 8.216 17.5654 8.328 17.2454 8.328H14.8934C14.7494 8.328 14.6774 8.392 14.6774 8.52V16.632C14.6774 17 14.5414 17.32 14.2694 17.592C13.9974 17.864 13.6774 18 13.3094 18H12.7094C12.3414 18 12.0214 17.864 11.7494 17.592C11.4934 17.32 11.3654 17 11.3654 16.632V8.52C11.3654 8.392 11.2934 8.328 11.1494 8.328H9.87738ZM23.2236 8.328C22.9036 8.328 22.6316 8.216 22.4076 7.992C22.1836 7.752 22.0716 7.472 22.0716 7.152C22.0716 6.832 22.1836 6.56 22.4076 6.336C22.6316 6.112 22.9036 6 23.2236 6H24.4956C24.6396 6 24.7116 5.928 24.7116 5.784V5.208C24.7116 3.48 25.0876 2.224 25.8396 1.44C26.5916 0.639999 27.7836 0.24 29.4156 0.24C29.9596 0.24 30.4316 0.271999 30.8316 0.335999C31.1676 0.383999 31.4396 0.551999 31.6476 0.839999C31.8716 1.112 31.9836 1.424 31.9836 1.776C31.9836 2.064 31.8636 2.296 31.6236 2.472C31.3836 2.632 31.1196 2.688 30.8316 2.64C30.5116 2.608 30.2796 2.592 30.1356 2.592C29.3196 2.592 28.7596 2.768 28.4556 3.12C28.1676 3.456 28.0236 4.12 28.0236 5.112V5.784C28.0236 5.928 28.0956 6 28.2396 6H30.5916C30.9116 6 31.1836 6.112 31.4076 6.336C31.6316 6.56 31.7436 6.832 31.7436 7.152C31.7436 7.472 31.6316 7.752 31.4076 7.992C31.1836 8.216 30.9116 8.328 30.5916 8.328H28.2396C28.0956 8.328 28.0236 8.392 28.0236 8.52V16.632C28.0236 17 27.8876 17.32 27.6156 17.592C27.3436 17.864 27.0236 18 26.6556 18H26.0556C25.6876 18 25.3676 17.864 25.0956 17.592C24.8396 17.32 24.7116 17 24.7116 16.632V8.52C24.7116 8.392 24.6396 8.328 24.4956 8.328H23.2236Z"
        fill="white" />
</svg>
